<svg width="26" height="32" viewBox="0 0 26 32" fill="none" xmlns="http://www.w3.org/2000/svg">
    <path d="M24.1992 7.3605C24.7309 7.67373 25.1723 8.12337 25.4793 8.66443C25.7863 9.20549 25.9481 9.819 25.9485 10.4436V17.453C25.9482 18.0769 25.7864 18.6897 25.4794 19.2299C25.1723 19.7702 24.7308 20.2188 24.1992 20.5307L16.5151 25.0372V20.9336L20.6954 18.5004C21.2274 18.1889 21.6691 17.7404 21.9762 17.2C22.2833 16.6597 22.4449 16.0467 22.4447 15.4227V12.3074C22.4436 12.1194 22.3939 11.9349 22.3007 11.7725C22.2075 11.6101 22.0739 11.4754 21.9134 11.3819C21.7529 11.2884 21.5711 11.2393 21.3861 11.2396C21.2011 11.2399 21.0194 11.2895 20.8592 11.3835L14.7235 14.9715C14.1915 15.2843 13.7498 15.7339 13.4428 16.275C13.1357 16.8162 12.9741 17.4299 12.9743 18.0546V31.2248L1.74928 24.6397C1.21731 24.3282 0.775521 23.8797 0.468419 23.3393C0.161317 22.799 -0.000247756 22.186 1.9063e-06 21.562V10.4436C-0.000639744 9.81879 0.160711 9.20485 0.467806 8.6636C0.7749 8.12235 1.2169 7.6729 1.74928 7.3605L12.9743 0.775391V4.92197L5.28483 9.41768C4.75048 9.72871 4.30636 10.1776 3.99736 10.7189C3.68836 11.2603 3.52541 11.8749 3.52498 12.5008V19.5209C3.52279 20.1388 3.67907 20.7466 3.9784 21.2844C4.27773 21.8222 4.70979 22.2715 5.23198 22.5879L9.45984 25.0909V16.0243C9.45959 15.4003 9.62116 14.7872 9.92826 14.2469C10.2354 13.7066 10.6772 13.2581 11.2091 12.9466L20.7218 7.3605C21.2548 7.049 21.8589 6.88506 22.4737 6.88506C23.0886 6.88506 23.6927 7.049 24.2257 7.3605"
          fill="#FF953F"/>
</svg>
